<svg width="24" height="24" viewBox="0 0 24 24" fill="none" xmlns="http://www.w3.org/2000/svg">
<rect width="24" height="24" fill="#E5E5E5"/>
<g id="Template 1-Mobile-Main" clip-path="url(#clip0_0_1)">
<rect width="375" height="5410" transform="translate(-293 -4014)" fill="#F7F7F9"/>
<path id="Base about my self" d="M82 755H-293V-508H2.00001C46.1828 -508 82 -472.183 82 -428V755Z" fill="white"/>
<g id="About My Self">
<g id="Skill List" clip-path="url(#clip1_0_1)">
<g id="Frame 12" clip-path="url(#clip2_0_1)">
<g id="Frame 7">
<g id="Normal Button/Tertiary/Disabled">
<g id="Icons/Icon - Chevron - Down - Larger">
<path id="Union" fill-rule="evenodd" clip-rule="evenodd" d="M5.29289 8.29289C5.68342 7.90237 6.31658 7.90237 6.70711 8.29289L12 13.5858L17.2929 8.29289C17.6834 7.90237 18.3166 7.90237 18.7071 8.29289C19.0976 8.68342 19.0976 9.31658 18.7071 9.70711L12.7071 15.7071C12.3166 16.0976 11.6834 16.0976 11.2929 15.7071L5.29289 9.70711C4.90237 9.31658 4.90237 8.68342 5.29289 8.29289Z" fill="#5E6C84"/>
</g>
</g>
</g>
</g>
</g>
</g>
</g>
<defs>
<clipPath id="clip0_0_1">
<rect width="375" height="5410" fill="white" transform="translate(-293 -4014)"/>
</clipPath>
<clipPath id="clip1_0_1">
<rect width="327" height="464.147" fill="white" transform="translate(-269 -24)"/>
</clipPath>
<clipPath id="clip2_0_1">
<rect width="327" height="320.147" fill="white" transform="translate(-269 -24)"/>
</clipPath>
</defs>
</svg>
